<svg width="120" height="32" viewBox="0 0 120 32" fill="none" xmlns="http://www.w3.org/2000/svg">
<mask id="mask0_26_651" style="mask-type:luminance" maskUnits="userSpaceOnUse" x="0" y="0" width="120" height="32">
<path d="M120 0H0V32H120V0Z" fill="white"/>
</mask>
<g mask="url(#mask0_26_651)">
<path d="M3.37329 25.1757C3.87216 25.1755 4.36487 25.2872 4.8159 25.5029C5.26694 25.7185 5.66508 26.0326 5.98163 26.4227C6.29819 26.8127 6.52529 27.2689 6.64656 27.7584C6.76783 28.2479 6.78026 28.7585 6.68295 29.2534C6.58564 29.7483 6.38101 30.2153 6.08382 30.6206C5.78662 31.0259 5.40425 31.3595 4.96425 31.5973C4.52425 31.8351 4.03758 31.9713 3.5393 31.9959C3.04102 32.0206 2.54354 31.9331 2.08269 31.7399C1.36192 31.4377 0.767008 30.892 0.399286 30.1959C0.031563 29.4998 -0.0862333 28.6963 0.0659591 27.9223C0.218152 27.1482 0.63092 26.4514 1.23397 25.9506C1.83701 25.4498 2.59304 25.1759 3.37329 25.1757Z" fill="white"/>
<path d="M67.6697 19.9568C67.6697 21.0512 67.3488 22.1211 66.7477 23.0312C66.1466 23.9412 65.2921 24.6505 64.2925 25.0693C63.2928 25.4882 62.1928 25.5978 61.1316 25.3842C60.0704 25.1707 59.0956 24.6437 58.3305 23.8697C57.5654 23.0958 57.0444 22.1098 56.8333 21.0364C56.6222 19.9629 56.7305 18.8502 57.1446 17.8391C57.5587 16.8279 58.2599 15.9636 59.1595 15.3556C60.0592 14.7475 61.1169 14.423 62.1989 14.423C63.6494 14.4245 65.04 15.0081 66.0656 16.0455C67.0912 17.083 67.6681 18.4896 67.6697 19.9568ZM72.8872 0.286988H68.9849C68.8799 0.286857 68.7759 0.307665 68.6788 0.348222C68.5818 0.388779 68.4936 0.44829 68.4193 0.523351C68.345 0.598412 68.2861 0.687551 68.2458 0.785671C68.2056 0.883791 68.1849 0.988967 68.1849 1.09518V10.6072C66.7313 9.56764 65.0558 8.88953 63.2945 8.62794C61.5331 8.36635 59.7356 8.52865 58.048 9.10166C56.3603 9.67468 54.83 10.6422 53.5814 11.9258C52.3328 13.2093 51.4011 14.7727 50.8619 16.4888C50.3227 18.205 50.1913 20.0256 50.4783 21.8028C50.7653 23.5799 51.4627 25.2636 52.5137 26.717C53.5647 28.1704 54.9398 29.3525 56.5273 30.1674C58.1148 30.9824 59.8699 31.4071 61.6502 31.407C63.9918 31.4152 66.2772 30.6809 68.1849 29.3073V30.0258C68.1849 30.132 68.2056 30.2372 68.2458 30.3353C68.2861 30.4335 68.345 30.5226 68.4193 30.5977C68.4936 30.6727 68.5818 30.7322 68.6788 30.7728C68.7759 30.8133 68.8799 30.8342 68.9849 30.834H73.2124C73.4243 30.834 73.6277 30.7489 73.7777 30.5974C73.9277 30.4458 74.0121 30.2403 74.0123 30.0258V1.42404C74.0121 1.12239 73.8934 0.833174 73.6824 0.619963C73.4715 0.406753 73.1855 0.286988 72.8872 0.286988Z" fill="white"/>
<path d="M91.4571 29.7866V9.55581C91.4571 9.41814 91.4839 9.28181 91.536 9.15462C91.588 9.02742 91.6644 8.91185 91.7606 8.8145C91.8569 8.71716 91.9711 8.63993 92.0969 8.58725C92.2226 8.53456 92.3574 8.50745 92.4935 8.50745H96.2707C96.4059 8.50771 96.5398 8.53479 96.6648 8.58717C96.7906 8.63952 96.9048 8.71677 97.0007 8.81438C97.0972 8.91161 97.1738 9.02715 97.226 9.15439C97.2783 9.28162 97.3052 9.41804 97.3051 9.55581V29.7856C97.305 29.9225 97.2782 30.0579 97.2263 30.1843C97.1745 30.312 97.0978 30.4279 97.0007 30.5251C96.9051 30.623 96.7908 30.7003 96.6648 30.7523C96.5398 30.8047 96.4059 30.8317 96.2707 30.832H92.4935C92.3582 30.8318 92.2243 30.8047 92.0994 30.7523C91.9099 30.673 91.7479 30.5387 91.6339 30.3663C91.5199 30.1938 91.4591 29.9911 91.459 29.7836" fill="white"/>
<path d="M94.3811 0.136597C95.2757 0.136861 96.1335 0.496441 96.7661 1.13629C97.3986 1.77614 97.7541 2.64388 97.7544 3.54876C97.7549 4.16685 97.5894 4.77347 97.2757 5.30384C96.9619 5.83421 96.5116 6.2684 95.9728 6.56006C95.4341 6.85171 94.8272 6.98987 94.2168 6.95977C93.6065 6.92968 93.0157 6.73246 92.5076 6.38918C91.9995 6.0459 91.5931 5.56946 91.3318 5.01073C91.0705 4.452 90.9641 3.83198 91.0241 3.21687C91.084 2.60177 91.308 2.01469 91.6722 1.51833C92.0363 1.02197 92.5269 0.634983 93.0915 0.398688C93.4999 0.22556 93.9383 0.136462 94.3811 0.136597Z" fill="white"/>
<path d="M119.497 25.5963L117.015 23.4188C116.886 23.3066 116.736 23.2218 116.574 23.1694C116.411 23.117 116.241 23.0981 116.071 23.1139C115.904 23.1291 115.742 23.1788 115.595 23.2599C115.448 23.341 115.318 23.4517 115.215 23.5852C114.468 24.5445 113.444 25.2439 112.285 25.5856C111.126 25.9273 109.891 25.8942 108.752 25.491C107.612 25.0879 106.626 24.3347 105.93 23.3368C105.235 22.339 104.865 21.1462 104.872 19.9253C104.88 18.7044 105.264 17.5163 105.972 16.527C106.679 15.5378 107.674 14.7969 108.818 14.4078C109.963 14.0187 111.198 14.0009 112.353 14.3568C113.507 14.7128 114.523 15.4247 115.258 16.3932C115.364 16.5322 115.497 16.6481 115.648 16.7338C115.799 16.8194 115.967 16.8731 116.139 16.8915C116.308 16.9099 116.479 16.8928 116.642 16.8414C116.804 16.79 116.954 16.7052 117.083 16.5925L119.566 14.418C119.812 14.2035 119.966 13.9007 119.995 13.5735C120.025 13.2463 119.928 12.9203 119.724 12.6641C118.231 10.7682 116.193 9.38742 113.892 8.71225C111.59 8.03708 109.138 8.10073 106.874 8.89443C104.61 9.68812 102.645 11.1728 101.25 13.1437C99.8546 15.1146 99.0984 17.4747 99.0853 19.8987C99.0721 22.3226 99.8026 24.691 101.176 26.6773C102.55 28.6636 104.499 30.17 106.754 30.9888C109.01 31.8076 111.461 31.8985 113.769 31.249C116.078 30.5994 118.131 29.2414 119.644 27.3621C119.853 27.1068 119.955 26.7786 119.927 26.4481C119.9 26.1177 119.745 25.8125 119.497 25.5963Z" fill="white"/>
<path d="M87.7803 8.50952C84.9 8.54412 82.1406 9.68594 80.0621 11.7033C77.9836 13.7206 76.7418 16.4622 76.5886 19.3718V30.0249C76.5886 30.2392 76.6728 30.4448 76.8226 30.5964C76.9725 30.7479 77.1757 30.8331 77.3876 30.8331H81.6889C81.9009 30.8331 82.1042 30.748 82.2542 30.5964C82.4042 30.4449 82.4886 30.2393 82.4889 30.0249V19.9598C82.4889 17.023 84.8208 14.4469 87.4789 14.4469H88.3655C88.6638 14.4464 88.9496 14.3263 89.1605 14.113C89.3714 13.8997 89.4901 13.6105 89.4906 13.3089V9.92461C89.4904 9.54922 89.3428 9.18928 89.0803 8.92393C88.8177 8.65858 88.4618 8.50952 88.0907 8.50952H87.7803Z" fill="white"/>
<path d="M13.5749 12.8036C11.9484 12.444 10.3574 11.9364 8.82138 11.2869C8.28747 11.1025 7.83425 10.7348 7.54037 10.2477C7.24649 9.76054 7.13051 9.1847 7.21256 8.6201C7.45886 7.48404 8.76325 6.26926 11.6853 6.26926L17.8694 6.26029C18.0815 6.26029 18.285 6.17503 18.435 6.02328C18.585 5.87153 18.6693 5.66571 18.6693 5.45109V0.810193C18.6693 0.59549 18.5851 0.389566 18.4351 0.237655C18.2851 0.0857431 18.0816 0.000267531 17.8694 3.4431e-06H11.6853C9.547 -0.0396243 7.42678 0.402922 5.47863 1.29551C3.91104 2.02756 2.55972 3.1612 1.55856 4.5841C0.792181 5.66747 0.300102 6.9244 0.125426 8.24479C-0.0492501 9.56518 0.0988054 10.9088 0.556625 12.1578C1.99697 16.0623 5.77222 17.1794 10.9996 18.7241C12.3789 19.1306 13.7956 19.5512 15.3453 20.0654C15.9599 20.1943 16.5091 20.5404 16.8943 21.0417C17.2796 21.543 17.4758 22.1666 17.4477 22.8009C17.2507 24.0785 15.6261 25.4447 11.6853 25.4447H9.07359C8.86159 25.4447 8.65826 25.5299 8.50827 25.6814C8.35827 25.8329 8.27387 26.0385 8.27361 26.2529V30.9367C8.27387 31.1511 8.35827 31.3567 8.50827 31.5082C8.65826 31.6598 8.86159 31.7449 9.07359 31.7449H11.6853C14.5357 31.8483 17.3633 31.1956 19.887 29.8515C21.6818 28.8499 23.0954 27.272 23.9046 25.367C24.4974 23.996 24.6876 22.4814 24.4527 21.004C24.2177 19.5266 23.5675 18.1487 22.5795 17.0349C20.0299 14.4499 16.7482 13.6148 13.5749 12.8036Z" fill="white"/>
<path d="M32.4708 17.031C32.979 16.1599 33.7031 15.438 34.5714 14.9364C35.4398 14.4349 36.4224 14.1711 37.4224 14.1711C38.4223 14.1711 39.405 14.4349 40.2733 14.9364C41.1417 15.438 41.8657 16.1599 42.3739 17.031H32.4708ZM45.4172 11.56C44.0557 10.2393 42.3948 9.27644 40.5799 8.75587C38.7651 8.2353 36.8518 8.17286 35.0076 8.57403C33.1633 8.9752 31.4445 9.82773 30.0017 11.0569C28.5589 12.2861 27.4361 13.8545 26.7317 15.6246C26.0273 17.3947 25.7628 19.3125 25.9613 21.21C26.1599 23.1075 26.8155 24.9269 27.8706 26.5086C28.9258 28.0903 30.3483 29.3861 32.0136 30.2825C33.6788 31.1789 35.536 31.6486 37.4224 31.6503C39.0958 31.6449 40.7513 31.3019 42.2921 30.6414C43.8328 29.9809 45.2278 29.0161 46.3955 27.8036L46.8822 27.2984C46.958 27.2193 47.0172 27.1255 47.056 27.0225C47.0947 26.9196 47.1124 26.8098 47.1078 26.6997C47.1032 26.5896 47.0764 26.4817 47.0291 26.3824C46.9819 26.2832 46.9151 26.1947 46.8329 26.1225L46.4615 25.7976L43.6507 23.3371C43.4951 23.201 43.2937 23.1307 43.0882 23.1409C42.8827 23.1511 42.689 23.241 42.5473 23.3919L42.2232 23.7377C41.5975 24.3859 40.851 24.9022 40.0268 25.2566C39.2025 25.611 38.317 25.7966 37.4214 25.8026C36.2547 25.8024 35.1157 25.4433 34.1555 24.773C33.1953 24.1027 32.4593 23.1529 32.0452 22.0496H47.6674C47.9849 22.0475 48.29 21.9247 48.5222 21.7055C48.7544 21.4864 48.8965 21.187 48.9205 20.8667C48.9461 20.5179 48.957 20.1631 48.9511 19.8133C48.9359 18.2688 48.6155 16.7429 48.0086 15.3255C47.4017 13.908 46.5206 12.6278 45.4172 11.56Z" fill="white"/>
</g>
</svg>
