<svg width="358" height="133" viewBox="0 0 358 133" fill="none" xmlns="http://www.w3.org/2000/svg">
<path d="M356.068 90.0747C263.211 82.5241 218.282 138.615 129.232 116.388C116.563 114.585 101.255 111.201 97.6542 99.4457C94.8899 90.4221 100.308 79.8088 109.79 74.8298C120.143 69.3928 133.735 69.6686 141.948 77.4642C152.38 87.3664 144.281 103.63 134.602 111.689C94.5123 145.073 -19.0294 133.949 6.55356 74.1043C17.6699 48.1007 65.0467 42.4291 63.888 10.4771" stroke="#5147C3" stroke-width="2" stroke-linecap="round" stroke-dasharray="14 14"/>
<g clip-path="url(#clip0_2014_1508)">
<path d="M183.043 113.946L183.526 109.458L181.696 104.843C181.59 104.576 181.612 104.276 181.756 104.021C181.901 103.766 182.153 103.581 182.447 103.515L184.445 103.065C184.783 102.988 185.135 103.078 185.383 103.303L188.829 106.433L198.386 104.278C198.389 104.226 198.394 104.174 198.406 104.122L198.834 102.176C198.919 101.793 199.23 101.488 199.629 101.398L201.397 101L201.319 100.651L189.072 103.412C188.514 103.538 187.965 103.21 187.845 102.68C187.725 102.15 188.081 101.618 188.639 101.492L200.886 98.7308L200.871 98.6665C200.752 98.1361 201.107 97.6042 201.666 97.4784C202.224 97.3525 202.773 97.6804 202.893 98.2107L202.907 98.275L215.154 95.5138C215.712 95.388 216.262 95.7158 216.381 96.2462C216.501 96.7765 216.145 97.3084 215.587 97.4343L203.34 100.195L203.419 100.544L205.187 100.145C205.586 100.055 205.998 100.197 206.239 100.506L207.461 102.08C207.494 102.123 207.521 102.168 207.546 102.213L209.682 101.732C212.295 101.142 214.981 101.319 217.45 102.242C219.92 103.165 221.993 104.768 223.447 106.878C223.684 107.223 223.851 107.604 223.943 108.009C224.356 109.841 223.123 111.685 221.195 112.12L220.21 112.342L220.403 113.198L221.844 112.873C222.403 112.748 222.952 113.075 223.072 113.606C223.191 114.136 222.836 114.668 222.277 114.794L209.39 117.7C208.832 117.825 208.283 117.498 208.163 116.967C208.043 116.437 208.399 115.905 208.957 115.779L210.399 115.454L210.198 114.565C207.993 114.883 205.781 114.456 203.894 113.33L199.506 110.711L189.33 111.468L186.956 114.176C186.809 114.345 186.608 114.463 186.386 114.513L184.287 114.986C183.964 115.059 183.627 114.981 183.381 114.775C183.134 114.569 183.009 114.261 183.043 113.946ZM204.964 102.214L200.719 103.171L200.584 103.783L205.348 102.709L204.964 102.214ZM214.423 103.511L214.77 105.051C214.897 105.616 215.485 105.966 216.079 105.832L218.853 105.207C217.532 104.339 216.015 103.76 214.423 103.511ZM218.382 113.654L218.189 112.798L212.227 114.142L212.42 114.998L218.382 113.654ZM205.017 111.65C206.664 112.632 208.627 112.935 210.546 112.503L220.762 110.199C221.576 110.016 222.096 109.238 221.921 108.465C221.883 108.294 221.812 108.133 221.712 107.988C221.414 107.555 221.083 107.15 220.726 106.772C220.651 106.808 220.572 106.838 220.488 106.857L216.512 107.753C214.803 108.138 213.115 107.131 212.749 105.507L212.268 103.378C211.552 103.401 210.831 103.491 210.115 103.652L199.997 105.933L200.706 109.077L205.017 111.65ZM185.61 112.67L188.044 109.893C188.227 109.684 188.49 109.554 188.773 109.533L198.521 108.808L197.975 106.389L188.721 108.476C188.383 108.552 188.031 108.462 187.783 108.237L184.337 105.107L184.053 105.171L185.547 108.939C185.603 109.081 185.624 109.233 185.608 109.386L185.245 112.752L185.61 112.67Z" fill="#5147C3"/>
</g>
<defs>
<clipPath id="clip0_2014_1508">
<rect width="41.255" height="39.1922" fill="white" transform="matrix(-0.975512 0.219945 0.219945 0.975512 218.652 84.542)"/>
</clipPath>
</defs>
</svg>
