<svg width="132" height="235" viewBox="0 0 132 235" fill="none" xmlns="http://www.w3.org/2000/svg">
<path d="M65.6863 230.291C69.3547 171.818 114.761 151.037 107.335 93.0778C107.27 85.003 106.313 75.095 98.0842 71.3866C91.7677 68.5399 83.4811 70.5624 78.9074 75.8101C73.9129 81.5405 72.7702 89.9952 77.6511 96.0626C83.851 103.77 96.5289 100.797 103.372 95.8143C131.716 75.1756 134.82 3.44052 88.5865 11.7663C68.497 15.384 59.6701 44.02 36.4504 39.2859" stroke="#5147C3" stroke-width="2" stroke-linecap="round" stroke-dasharray="14 14"/>
<g clip-path="url(#clip0_2014_1509)">
<path d="M99.7684 145.759L95.8624 143.495L93.2227 139.29C93.0703 139.047 92.8152 138.888 92.5244 138.854C92.2335 138.819 91.9354 138.913 91.708 139.111L90.1632 140.456C89.9018 140.684 89.7658 141.021 89.8009 141.353L90.2877 145.984L82.8994 152.417C82.856 152.389 82.8105 152.362 82.7613 152.341L80.9387 151.536C80.58 151.377 80.15 151.448 79.8415 151.717L78.4746 152.907L78.2402 152.638L87.7078 144.394C88.1393 144.018 88.1998 143.381 87.8428 142.971C87.4858 142.561 86.8465 142.533 86.415 142.909L76.9474 151.153L76.9041 151.103C76.5471 150.693 75.9078 150.666 75.4762 151.041C75.0447 151.417 74.9842 152.054 75.3412 152.464L75.3845 152.514L65.9169 160.758C65.4853 161.134 65.4249 161.771 65.7819 162.181C66.1389 162.591 66.7781 162.619 67.2097 162.243L76.6773 153.999L76.9118 154.268L75.545 155.458C75.2364 155.727 75.1069 156.143 75.2145 156.52L75.7612 158.436C75.7759 158.488 75.7958 158.537 75.8181 158.583L74.1664 160.022C72.1464 161.781 70.7006 164.051 69.9853 166.588C69.27 169.126 69.3369 171.746 70.1788 174.165C70.3163 174.561 70.5246 174.921 70.7978 175.234C72.0309 176.65 74.2468 176.746 75.7375 175.449L76.4989 174.785L77.0755 175.448L75.9612 176.418C75.5297 176.794 75.4692 177.431 75.8262 177.841C76.1832 178.251 76.8225 178.278 77.254 177.903L87.217 169.227C87.6486 168.851 87.709 168.214 87.352 167.804C86.995 167.394 86.3558 167.367 85.9242 167.743L84.8099 168.713L84.2115 168.026C85.7718 166.436 86.735 164.399 86.9427 162.211L87.4254 157.124L94.0521 149.364L97.6401 149.051C97.8629 149.032 98.0769 148.94 98.2488 148.791L99.871 147.378C100.121 147.16 100.257 146.842 100.237 146.522C100.216 146.201 100.042 145.918 99.7684 145.759ZM77.3451 156.501L80.6269 153.643L81.2004 153.897L77.5171 157.104L77.3451 156.501ZM72.7984 164.897L73.8355 166.088C74.2157 166.524 74.1511 167.205 73.6915 167.605L71.5469 169.473C71.6286 167.894 72.0578 166.328 72.7984 164.897ZM78.6384 174.087L78.0618 173.425L82.6705 169.411L83.2471 170.074L78.6384 174.087ZM84.9235 162.123C84.7423 164.033 83.8259 165.795 82.3429 167.086L74.4447 173.964C73.8158 174.512 72.8809 174.471 72.3607 173.874C72.2454 173.741 72.1575 173.589 72.0995 173.422C71.9268 172.926 71.7953 172.42 71.702 171.908C71.7751 171.87 71.8455 171.823 71.9108 171.766L74.9844 169.09C76.3057 167.939 76.4915 165.982 75.3984 164.727L73.9649 163.081C74.4073 162.517 74.9058 161.988 75.4592 161.506L83.2816 154.695L85.3978 157.125L84.9235 162.123ZM97.221 147.075L93.5428 147.396C93.2658 147.42 93.0052 147.555 92.8211 147.771L86.4729 155.204L84.8443 153.334L91.9989 147.104C92.2602 146.876 92.3962 146.54 92.3612 146.207L91.8743 141.577L92.0941 141.385L94.2491 144.818C94.3301 144.947 94.4412 145.054 94.5737 145.131L97.5034 146.829L97.221 147.075Z" fill="#5147C3"/>
</g>
<defs>
<clipPath id="clip0_2014_1509">
<rect width="41.255" height="39.1922" fill="white" transform="translate(55 157.092) rotate(-41.0481)"/>
</clipPath>
</defs>
</svg>
