<svg width="80" height="70" viewBox="0 0 80 70" fill="none" xmlns="http://www.w3.org/2000/svg">
<circle cx="34.8148" cy="34.816" r="34.8148" fill="#AB68E7"/>
<rect x="11.1111" y="0.741961" width="68.1481" height="68.1481" rx="34.0741" fill="#F7FBFF" fill-opacity="0.9"/>
<rect x="11.1111" y="0.741961" width="68.1481" height="68.1481" rx="34.0741" stroke="#AB68E7" stroke-width="1.48148"/>
<path d="M45.1612 44.1359C43.9523 44.1359 42.8501 43.9226 41.8546 43.4959C40.8768 43.0515 40.0946 42.3848 39.5079 41.4959C38.9212 40.607 38.6101 39.4959 38.5746 38.1626H41.3746C41.4101 39.1581 41.7479 40.0026 42.3879 40.6959C43.0457 41.3715 43.9701 41.7093 45.1612 41.7093C46.299 41.7093 47.1701 41.3981 47.7746 40.7759C48.379 40.1359 48.6812 39.3448 48.6812 38.4026C48.6812 37.2648 48.2723 36.4204 47.4546 35.8693C46.6546 35.3181 45.6679 35.0426 44.4946 35.0426H43.1079V32.6959H44.5212C45.5701 32.6959 46.4146 32.447 47.0546 31.9493C47.7123 31.4515 48.0412 30.7493 48.0412 29.8426C48.0412 29.0781 47.7834 28.4559 47.2679 27.9759C46.7701 27.4959 46.059 27.2559 45.1346 27.2559C44.1746 27.2559 43.419 27.5404 42.8679 28.1093C42.3168 28.6604 42.0146 29.3537 41.9612 30.1893H39.1612C39.1968 29.1048 39.4634 28.1626 39.9612 27.3626C40.4768 26.5626 41.179 25.9404 42.0679 25.4959C42.9568 25.0515 43.979 24.8293 45.1346 24.8293C46.379 24.8293 47.419 25.0515 48.2546 25.4959C49.1079 25.9226 49.7479 26.5093 50.1746 27.2559C50.619 27.9848 50.8412 28.7848 50.8412 29.6559C50.8412 30.6515 50.5657 31.5226 50.0146 32.2693C49.4634 33.0159 48.7257 33.5137 47.8012 33.7626C48.8679 33.9937 49.7479 34.5181 50.4412 35.3359C51.1346 36.1359 51.4812 37.1759 51.4812 38.4559C51.4812 39.487 51.2412 40.4381 50.7612 41.3093C50.2812 42.1626 49.5701 42.847 48.6279 43.3626C47.6857 43.8781 46.5301 44.1359 45.1612 44.1359Z" fill="#C255FB"/>
</svg>
