<svg width="129" height="218" viewBox="0 0 129 218" fill="none" xmlns="http://www.w3.org/2000/svg">
<path d="M64.9689 212.928C61.1811 159.103 16.9224 141.133 23.9316 87.4896C23.964 80.0414 24.8588 70.8794 32.8515 67.2429C38.987 64.4515 47.0576 66.0984 51.5276 70.8173C56.4088 75.9703 57.5522 83.7369 52.8256 89.4606C46.8217 96.7311 34.4747 94.3234 27.7977 89.9087C0.140581 71.6225 -3.14734 5.55172 41.8704 12.0123C61.4315 14.8196 70.1273 40.9947 92.7031 36.0177" stroke="#5147C3" stroke-width="2" stroke-linecap="round" stroke-dasharray="14 14"/>
<g clip-path="url(#clip0_2014_1510)">
<path d="M39.9963 130.293L44.4341 129.464L48.3268 126.382C48.5516 126.204 48.8452 126.139 49.1309 126.204C49.4165 126.268 49.6661 126.457 49.8143 126.719L50.8211 128.503C50.9915 128.805 51.0072 129.168 50.863 129.469L48.8576 133.671L53.6728 142.203C53.7233 142.191 53.7749 142.181 53.8285 142.177L55.8154 142.027C56.2064 141.997 56.5879 142.208 56.789 142.564L57.6799 144.143L57.9908 143.967L51.8204 133.034C51.5391 132.536 51.6949 131.916 52.1683 131.648C52.6417 131.381 53.2536 131.569 53.5348 132.067L59.7052 143L59.7626 142.967C60.2361 142.7 60.8479 142.887 61.1291 143.386C61.4104 143.884 61.2546 144.505 60.7812 144.772L60.7238 144.804L66.8942 155.737C67.1754 156.236 67.0197 156.856 66.5462 157.123C66.0728 157.391 65.461 157.203 65.1797 156.705L59.0093 145.772L58.6984 145.947L59.5892 147.526C59.7903 147.882 59.7734 148.318 59.546 148.637L58.3907 150.261C58.3596 150.304 58.3246 150.344 58.2879 150.38L59.3644 152.288C60.6809 154.62 61.2853 157.244 61.1121 159.874C60.9389 162.504 60.0007 164.951 58.399 166.951C58.1373 167.278 57.8207 167.547 57.4585 167.752C55.8232 168.675 53.7024 168.025 52.7309 166.304L52.2346 165.425L51.47 165.856L52.1962 167.143C52.4775 167.641 52.3217 168.262 51.8483 168.529C51.3748 168.796 50.7631 168.609 50.4818 168.111L43.9885 156.606C43.7073 156.107 43.863 155.487 44.3365 155.22C44.8099 154.952 45.4217 155.14 45.703 155.638L46.4292 156.925L47.2228 156.477C46.2832 154.457 46.0554 152.216 46.5906 150.084L47.8346 145.128L44.1802 135.601L40.9029 134.107C40.6993 134.014 40.5282 133.856 40.4162 133.658L39.359 131.785C39.196 131.496 39.1742 131.151 39.3002 130.856C39.4263 130.56 39.6851 130.351 39.9963 130.293ZM57.5441 147.908L55.4053 144.118L54.7801 144.165L57.1807 148.418L57.5441 147.908ZM59.0256 157.34L57.6502 158.116C57.146 158.4 56.9795 159.064 57.2791 159.594L58.6768 162.071C59.1272 160.555 59.2455 158.937 59.0256 157.34ZM50.4515 164.051L51.2161 163.62L48.2124 158.298L47.4478 158.729L50.4515 164.051ZM48.5231 150.676C48.0562 152.536 48.3313 154.503 49.2978 156.216L54.4453 165.336C54.8552 166.063 55.7499 166.337 56.4398 165.947C56.5927 165.861 56.7263 165.747 56.8367 165.609C57.1654 165.199 57.4584 164.766 57.7172 164.315C57.6611 164.254 57.6102 164.187 57.5677 164.111L55.5645 160.562C54.7034 159.036 55.182 157.129 56.6316 156.311L58.5327 155.238C58.304 154.559 58.0106 153.894 57.6499 153.255L52.5518 144.222L49.7453 145.806L48.5231 150.676ZM41.9579 132.384L45.3176 133.915C45.5707 134.031 45.7712 134.245 45.8727 134.51L49.3736 143.637L51.5333 142.418L46.8705 134.156C46.7001 133.854 46.6844 133.491 46.8286 133.189L48.834 128.988L48.6907 128.734L45.513 131.25C45.3935 131.344 45.253 131.408 45.1025 131.436L41.7739 132.058L41.9579 132.384Z" fill="#5147C3"/>
</g>
<defs>
<clipPath id="clip0_2014_1510">
<rect width="41.255" height="39.1922" fill="white" transform="matrix(-0.491513 -0.87087 -0.87087 0.491513 78.4087 155.928)"/>
</clipPath>
</defs>
</svg>
