<svg width="382" height="275" viewBox="0 0 382 275" fill="none" xmlns="http://www.w3.org/2000/svg">
<path d="M367.633 194.561C277.368 160.208 259.059 89.5773 166.132 70.1802C153.489 66.1925 137.701 62.4636 129.334 71.4933C122.911 78.4248 123.485 90.422 130.26 99.1278C137.659 108.634 150.52 114.413 161.529 111.007C175.514 106.682 174.825 88.3879 169.173 76.81C145.76 28.8522 34.5844 -11.4422 33.1623 54.0026C32.5444 82.4396 74.5551 108.576 59.9032 136.947" stroke="#5147C3" stroke-width="2" stroke-linecap="round" stroke-dasharray="14 14"/>
<g clip-path="url(#clip0_2014_1507)">
<path d="M219.482 75.328L223.287 72.8994L225.745 68.5854C225.887 68.3362 226.135 68.1661 226.424 68.1193C226.713 68.0725 227.015 68.1538 227.251 68.3419L228.852 69.6199C229.123 69.8361 229.273 70.1666 229.252 70.5005L228.963 75.1475L236.619 81.2596C236.662 81.2293 236.706 81.2012 236.754 81.1773L238.541 80.2952C238.892 80.1215 239.325 80.1742 239.645 80.4295L241.061 81.5602L241.284 81.2812L231.473 73.4488C231.026 73.0919 230.938 72.458 231.277 72.0331C231.616 71.6083 232.254 71.5534 232.701 71.9103L242.512 79.7427L242.553 79.6911C242.892 79.2663 243.53 79.2113 243.977 79.5683C244.424 79.9254 244.512 80.5592 244.173 80.984L244.132 81.0356L253.943 88.8679C254.39 89.225 254.477 89.8588 254.138 90.2836C253.799 90.7085 253.162 90.7635 252.714 90.4065L242.903 82.5741L242.681 82.8531L244.097 83.9839C244.417 84.2391 244.564 84.6493 244.472 85.0306L244.008 86.9684C243.996 87.0207 243.978 87.0702 243.958 87.118L245.669 88.4844C247.762 90.1554 249.304 92.3624 250.127 94.8666C250.95 97.371 250.995 99.9914 250.257 102.445C250.136 102.846 249.944 103.214 249.684 103.539C248.513 105.007 246.303 105.197 244.758 103.964L243.969 103.334L243.421 104.02L244.576 104.942C245.023 105.299 245.111 105.933 244.771 106.358C244.432 106.783 243.795 106.838 243.348 106.481L233.023 98.2387C232.576 97.8817 232.489 97.2478 232.828 96.823C233.167 96.3981 233.804 96.3431 234.252 96.7002L235.406 97.622L235.975 96.9098C234.348 95.388 233.299 93.3944 232.998 91.217L232.298 86.1553L225.347 78.6858L221.748 78.5261C221.525 78.5162 221.307 78.4337 221.129 78.2916L219.448 76.9496C219.189 76.7427 219.04 76.4305 219.046 76.1097C219.053 75.7889 219.215 75.4983 219.482 75.328ZM242.343 85.1026L238.942 82.3877L238.38 82.6652L242.197 85.7123L242.343 85.1026ZM247.244 93.2964L246.259 94.5307C245.897 94.9832 245.991 95.6606 246.467 96.0408L248.69 97.815C248.541 96.2409 248.045 94.6953 247.244 93.2964ZM241.802 102.728L242.349 102.041L237.574 98.2287L237.026 98.9149L241.802 102.728ZM235.012 91.0434C235.274 92.9431 236.265 94.665 237.802 95.8918L245.986 102.426C246.638 102.946 247.57 102.866 248.065 102.247C248.174 102.109 248.255 101.954 248.306 101.785C248.458 101.281 248.567 100.77 248.639 100.255C248.564 100.22 248.492 100.176 248.424 100.122L245.239 97.5794C243.87 96.4863 243.601 94.5387 244.639 93.2379L246.001 91.5319C245.535 90.9874 245.014 90.4807 244.441 90.0229L236.335 83.5516L234.324 86.0701L235.012 91.0434ZM222.083 76.5338L225.771 76.6975C226.049 76.7099 226.315 76.8338 226.508 77.0412L233.168 84.1968L234.715 82.2586L227.301 76.3399C227.031 76.1236 226.88 75.7931 226.901 75.4592L227.19 70.8123L226.962 70.6305L224.956 74.1522C224.88 74.2847 224.774 74.3963 224.645 74.4787L221.79 76.3002L222.083 76.5338Z" fill="#5147C3"/>
</g>
<defs>
<clipPath id="clip0_2014_1507">
<rect width="41.255" height="39.1922" fill="white" transform="matrix(-0.781506 -0.623898 -0.623898 0.781506 264.693 84.739)"/>
</clipPath>
</defs>
</svg>
