<svg width="80" height="70" viewBox="0 0 80 70" fill="none" xmlns="http://www.w3.org/2000/svg">
<circle cx="34.8148" cy="34.816" r="34.8148" fill="#AB68E7"/>
<rect x="11.1111" y="0.741961" width="68.1481" height="68.1481" rx="34.0741" fill="#F7FBFF" fill-opacity="0.9"/>
<rect x="11.1111" y="0.741961" width="68.1481" height="68.1481" rx="34.0741" stroke="#AB68E7" stroke-width="1.48148"/>
<path d="M39.075 43.8159V41.7893C40.2839 40.8293 41.4394 39.8604 42.5417 38.8826C43.6439 37.9048 44.6217 36.9448 45.475 36.0026C46.3461 35.0426 47.0305 34.1093 47.5283 33.2026C48.0261 32.2781 48.275 31.3893 48.275 30.5359C48.275 29.967 48.1772 29.4337 47.9817 28.9359C47.7861 28.4204 47.4661 28.0115 47.0217 27.7093C46.5772 27.3893 45.9817 27.2293 45.235 27.2293C44.115 27.2293 43.2705 27.5848 42.7017 28.2959C42.1505 29.007 41.8839 29.8604 41.9017 30.8559H39.155C39.1728 29.5404 39.4483 28.4381 39.9817 27.5493C40.5328 26.6604 41.2617 25.9848 42.1683 25.5226C43.0928 25.0604 44.1328 24.8293 45.2883 24.8293C47.0483 24.8293 48.4528 25.327 49.5017 26.3226C50.5683 27.3004 51.1017 28.6693 51.1017 30.4293C51.1017 31.4781 50.8439 32.5181 50.3283 33.5493C49.8305 34.5804 49.1728 35.5759 48.355 36.5359C47.555 37.4781 46.6928 38.367 45.7683 39.2026C44.8439 40.0381 43.9639 40.7937 43.1283 41.4693H51.6617V43.8159H39.075Z" fill="#C255FB"/>
</svg>
